# xmcd
#
# Track frame offsets:
#	150
#	12755
#	28294
#	54921
#	63854
#	77019
#	90732
#	106018
#	119604
#	131232
#	142490
#	154034
#	166089
#	179883
#	191868
#	204752
#	218995
#	232603
#	246246
#	258718
#	271153
#	283301
#	296204
#
# Disc length: 4163 seconds
#
# Revision: 2
# Processed by: cddbd v1.5.2PL0 Copyright (c) Steve Scherf et al.
# Submitted via: audiograbber 1.83.01
#
DISCID=5e104117
DTITLE=Various Artist - Banker's Blues
DYEAR=2009
DGENRE=Blues
TTITLE0=Blind Alfred Reed - Money Craving Folks
TTITLE1=Barbeque Bob - We Sure Got Hard Times Now
TTITLE2=Frankie "Half Pint" Jaxon  and his Hot Shots - Mortgage Blues Parts 1&2
TTITLE3=Little Son Jackson - No Money
TTITLE4=Memphis Minnie - Million Dollar Blues
TTITLE5=Charlie "Specks" McFadden - Times Are So Tight
TTITLE6=Brother Fullbosom - A Sermon On A Silver Dollar
TTITLE7=Rufus Thomas - Save That Money
TTITLE8=Ralph Willis - Income Tax Blues
TTITLE9=Big Bill Broonzy - The Bankers Blues
TTITLE10=Edgewater Crows - No Bonus Blues
TTITLE11=Martha Copeland - The Pawn Shop Blues
TTITLE12=Smith and Harper - Insurance Policy Blues
TTITLE13=Charley Jordan - Stack O' Dollar Blues
TTITLE14=Bo Carter - Times Is Tight Like That
TTITLE15=Peetie Wheatstraw - Poor Millionaire Blues
TTITLE16=One String Sam - I Need a Hundred Dollars
TTITLE17=Goldrush - All My Money Is Gone
TTITLE18=Mississippi Sheiks - Sales Tax
TTITLE19=Bobby Saxton - Trying To Make A Living
TTITLE20=Hop Wilson - Broke And Hungry
TTITLE21=Bill Gaither - Money Kills Love
TTITLE22=Russell Means - Ain't No Prison For The Corporation
EXTD=
EXTT0=
EXTT1=
EXTT2=
EXTT3=
EXTT4=
EXTT5=
EXTT6=
EXTT7=
EXTT8=
EXTT9=
EXTT10=
EXTT11=
EXTT12=
EXTT13=
EXTT14=
EXTT15=
EXTT16=
EXTT17=
EXTT18=
EXTT19=
EXTT20=
EXTT21=
EXTT22=
PLAYORDER=
